<svg viewBox="0 0 100 60" xmlns="http://www.w3.org/2000/svg"><defs><radialGradient gradientTransform="matrix(1 0 0 .86766 0 .012)" fy="8.83%" fx="22.336%" r="113.243%" cy="8.83%" cx="22.336%" id="a"><stop stop-color="#FC0" offset="0%"></stop><stop stop-color="#FFC800" offset="9%"></stop><stop stop-color="#FFBD00" offset="17%"></stop><stop stop-color="#FFAB00" offset="25%"></stop><stop stop-color="#FF9100" offset="33%"></stop><stop stop-color="#FF7000" offset="40%"></stop><stop stop-color="#FF4700" offset="48%"></stop><stop stop-color="#FF1800" offset="55%"></stop><stop stop-color="red" offset="58%"></stop><stop stop-color="red" offset="100%"></stop></radialGradient><radialGradient gradientTransform="matrix(1 0 0 .64561 0 .052)" fy="14.599%" fx="2.395%" r="139.402%" cy="14.599%" cx="2.395%" id="b"><stop stop-color="#00B4E6" offset="0%"></stop><stop stop-color="#00B0E3" offset="20%"></stop><stop stop-color="#01A5DB" offset="39%"></stop><stop stop-color="#0292CD" offset="57%"></stop><stop stop-color="#0377BA" offset="75%"></stop><stop stop-color="#0455A1" offset="93%"></stop><stop stop-color="#054696" offset="100%"></stop></radialGradient></defs><g fill-rule="evenodd" fill="none"><path d="M0 0h100v60H0z" fill="#000"></path><g fill-rule="nonzero"><path d="M36.355 34.995a.993.993 0 0 1-.433.773l-8.458 4.995a.946.946 0 0 1-.871 0l-8.458-4.995a.993.993 0 0 1-.433-.773v-9.992a.993.993 0 0 1 .433-.77l8.458-4.998a.946.946 0 0 1 .87 0l8.457 4.997a.993.993 0 0 1 .435.77v9.993zm46.945-9.27h-7.576v1.84h2.715v7.912h2.144v-7.911H83.3v-1.843.002zm-34.39 0h-7.577v1.84h2.717v7.912h2.144v-7.911h2.716v-1.843.002zm21.913-.31c-2.383 0-3.709 1.554-3.709 3.805v6.257h2.118v-6.304c0-.98.57-1.734 1.614-1.734 1.045 0 1.606.895 1.606 1.734v6.306h2.119v-6.257c0-2.251-1.372-3.806-3.752-3.806h.004v-.002zm-8.003.31h2.128v9.752H62.82v-9.752zm-7.18 3.862l.07.433 1.989 5.457h.867l2.71-9.754H59.18l-1.29 5.124-.077.549-.105-.549-1.724-5.122h-.69l-1.726 5.122-.104.549-.077-.549-1.289-5.122h-2.097l2.71 9.752h.867l1.99-5.457.071-.433z" fill="#FFF"></path><path transform="translate(17 19)" d="M14.433 11.025l-2.203 3.307-1.13-1.772 1.305-1.992c.242-.356.759-1.33.16-2.664a2.71 2.71 0 0 0-2.457-1.605A2.71 2.71 0 0 0 7.65 7.904a2.611 2.611 0 0 0 .149 2.624c.518.779.72 1.087 1.328 2.004l.977 1.445 1.478 2.308a.84.84 0 0 0 .657.382c.395 0 .636-.36.666-.404l3.457-5.237-1.93-.001zm-4.34.084s-.577-.895-.952-1.522A1.142 1.142 0 0 1 9 9.034c0-.615.494-1.12 1.095-1.12s1.095.505 1.095 1.12c0 .194-.049.385-.142.553-.368.626-.943 1.522-.943 1.522h-.01z" fill="url(#a)"></path><path transform="translate(17 19)" d="M7.974 14.226l-2.166-3.113s-.577-.899-.952-1.524a1.135 1.135 0 0 1-.146-.557c0-.612.492-1.116 1.09-1.116h.008c.107 0 .214.014.317.044l.765-1.43c-1.338-.599-2.92.017-3.532 1.373a2.611 2.611 0 0 0 .149 2.625l3.787 5.74c.031.05.272.412.674.412a.84.84 0 0 0 .666-.403l1.141-1.784-.98-1.48-.821 1.214z" fill="url(#b)"></path></g></g></svg>